<?xml version="1.0" standalone="no"?><!DOCTYPE svg PUBLIC "-//W3C//DTD SVG 1.1//EN" "http://www.w3.org/Graphics/SVG/1.1/DTD/svg11.dtd"><svg t="1713077732713" class="icon" viewBox="0 0 1024 1024" version="1.1" xmlns="http://www.w3.org/2000/svg" p-id="6162" xmlns:xlink="http://www.w3.org/1999/xlink" width="200" height="200"><path d="M556.583385 208.896l122.564923-122.564923c66.953846-66.953846 175.655385-66.953846 242.60923 0l4.017231 3.938461c67.032615 67.032615 67.032615 175.655385 0 242.76677l-122.564923 122.486154 43.795692 43.795692-71.995076 71.995077-43.716924-43.795693-303.891692 303.812924-31.035077 20.795076a171.638154 171.638154 0 0 1-68.450461 26.781539l-66.323693 10.555077c-12.918154 2.599385-27.963077 10.397538-45.134769 23.394461-17.092923 13.075692-41.353846 35.131077-72.861538 66.244923l-55.296-55.296-56.32-56.398769c30.72-31.271385 52.775385-55.532308 66.48123-72.467692 13.705846-17.092923 22.291692-31.271385 25.915077-42.692923l5.435077-58.840616c3.150769-33.949538 16.305231-66.244923 37.888-92.711384l13.075693-15.990154 303.812923-303.891692-43.716923-43.716923 71.916307-71.995077 43.795693 43.795692z m-4.332308 139.579077L270.020923 630.705231c-15.517538 12.288-29.144615 32.295385-40.723692 59.943384-2.678154 6.380308-3.544615 22.055385-4.883693 37.494154-1.575385 17.801846-3.780923 35.761231-7.640615 47.812923a162.500923 162.500923 0 0 1-28.829538 50.176c24.654769-12.760615 43.795692-21.425231 57.501538-26.072615 22.606769-7.719385 41.905231-4.489846 58.289231-11.421539a364.386462 364.386462 0 0 0 79.714461-44.583384L665.6 461.902769l-113.427692-113.427692z" fill="#757577" p-id="6163" data-spm-anchor-id="a313x.search_index.0.i7.638a3a81hnAvJC" class="selected"></path></svg>