<?xml version="1.0" standalone="no"?><!DOCTYPE svg PUBLIC "-//W3C//DTD SVG 1.1//EN" "http://www.w3.org/Graphics/SVG/1.1/DTD/svg11.dtd"><svg t="1705376209128" class="icon" viewBox="0 0 1024 1024" version="1.1" xmlns="http://www.w3.org/2000/svg" p-id="4066" xmlns:xlink="http://www.w3.org/1999/xlink" width="64" height="64"><path d="M448 832V192a64 64 0 0 0-64-64H192a64 64 0 0 0-64 64v640a64 64 0 0 0 64 64h192a64 64 0 0 0 64-64zM192 192h192v640H192V192z m704 640V192a64 64 0 0 0-64-64h-192a64 64 0 0 0-64 64v640a64 64 0 0 0 64 64h192a64 64 0 0 0 64-64zM640 192h192v640h-192V192z" p-id="4067" fill="#4a4a4b"></path></svg>