<?xml version="1.0" standalone="no"?><!DOCTYPE svg PUBLIC "-//W3C//DTD SVG 1.1//EN" "http://www.w3.org/Graphics/SVG/1.1/DTD/svg11.dtd"><svg t="1702534442159" class="icon" viewBox="0 0 1024 1024" version="1.1" xmlns="http://www.w3.org/2000/svg" p-id="5303" xmlns:xlink="http://www.w3.org/1999/xlink" width="64" height="64"><path d="M695.96 953.65h-367.3c-76.07 0-137.74-61.67-137.74-137.74V293.63H833.7v522.28c0 76.07-61.67 137.74-137.74 137.74zM626.6 186.44H398.02c0-63.12 51.17-114.29 114.29-114.29S626.6 123.32 626.6 186.44z" fill="#F7B52C" p-id="5304"></path><path d="M833.7 243.09H188.97c-19.02 0-34.43-15.42-34.43-34.43s15.41-34.43 34.43-34.43H833.7c19.02 0 34.43 15.42 34.43 34.43s-15.41 34.43-34.43 34.43z" fill="#F7B52C" p-id="5305"></path><path d="M511.33 813.52c-19.02 0-34.43-15.42-34.43-34.43V466.61c0-19.02 15.42-34.43 34.43-34.43s34.43 15.42 34.43 34.43v312.48c0.01 19.01-15.41 34.43-34.43 34.43zM354.06 815.11c-19.02 0-34.43-15.42-34.43-34.43V586.03c0-19.02 15.42-34.43 34.43-34.43s34.43 15.42 34.43 34.43v194.64c0.01 19.02-15.41 34.44-34.43 34.44zM668.6 815.11c-19.02 0-34.43-15.42-34.43-34.43V586.03c0-19.02 15.42-34.43 34.43-34.43s34.43 15.42 34.43 34.43v194.64c0.01 19.02-15.41 34.44-34.43 34.44z" fill="#FFFFFF" p-id="5306"></path></svg>