<?xml version="1.0" standalone="no"?><!DOCTYPE svg PUBLIC "-//W3C//DTD SVG 1.1//EN" "http://www.w3.org/Graphics/SVG/1.1/DTD/svg11.dtd"><svg t="1702636702688" class="icon" viewBox="0 0 1024 1024" version="1.1" xmlns="http://www.w3.org/2000/svg" p-id="6403" xmlns:xlink="http://www.w3.org/1999/xlink" width="64" height="64"><path d="M854.26 239.96v555.98c0 49.71-40.29 90-90 90H322.74c-49.71 0-90-40.29-90-90V239.96c0-49.71 40.29-90 90-90h441.52c49.71 0 90 40.3 90 90z" fill="#99D1FF" p-id="6404"></path><path d="M704.26 905.95H262.74c-60.65 0-110-49.35-110-110V239.96c0-60.65 49.35-110 110-110h330.37c11.05 0 20 8.95 20 20s-8.95 20-20 20H262.74c-38.6 0-70 31.4-70 70v555.98c0 38.6 31.4 70 70 70h441.52c38.6 0 70-31.4 70-70V405.76c0-11.05 8.95-20 20-20s20 8.95 20 20v390.18c0 60.66-49.35 110.01-110 110.01z" fill="#0072F0" p-id="6405"></path><path d="M544.73 477.91H270.27c-11.05 0-20-8.95-20-20s8.95-20 20-20h274.46c11.05 0 20 8.95 20 20s-8.95 20-20 20zM600.32 408.99c-5.12 0-10.24-1.95-14.14-5.86-7.81-7.81-7.81-20.47 0-28.28l250.94-250.94c7.81-7.81 20.47-7.81 28.28 0s7.81 20.47 0 28.28L614.46 403.14c-3.9 3.9-9.02 5.85-14.14 5.85zM696.73 649.74H270.27c-11.05 0-20-8.95-20-20s8.95-20 20-20h426.46c11.05 0 20 8.95 20 20s-8.95 20-20 20z" fill="#0072F0" p-id="6406"></path></svg>