<?xml version="1.0" standalone="no"?><!DOCTYPE svg PUBLIC "-//W3C//DTD SVG 1.1//EN" "http://www.w3.org/Graphics/SVG/1.1/DTD/svg11.dtd"><svg t="1726146417162" class="icon" viewBox="0 0 1024 1024" version="1.1" xmlns="http://www.w3.org/2000/svg" p-id="8544" xmlns:xlink="http://www.w3.org/1999/xlink" width="200" height="200"><path d="M824.32 315.733c-3.413-6.826-8.533-10.24-15.36-10.24H628.053V51.2c0-10.24-8.533-17.067-17.066-17.067H413.013c-10.24 0-17.066 8.534-17.066 17.067v254.293H215.04c-6.827 0-13.653 3.414-15.36 10.24-3.413 6.827-1.707 13.654 3.413 18.774l296.96 296.96c3.414 3.413 8.534 5.12 11.947 5.12s8.533-1.707 11.947-5.12l296.96-296.96c5.12-3.414 6.826-11.947 3.413-18.774zM955.733 747.52H68.267c-18.774 0-34.134 15.36-34.134 34.133s15.36 34.134 34.134 34.134h887.466c18.774 0 34.134-15.36 34.134-34.134s-13.654-34.133-34.134-34.133zM759.467 919.893H264.533c-18.773 0-34.133 15.36-34.133 34.134s15.36 34.133 34.133 34.133H757.76c18.773 0 34.133-15.36 34.133-34.133s-13.653-34.134-32.426-34.134z" fill="#333333" p-id="8545"></path></svg>