<?xml version="1.0" standalone="no"?><!DOCTYPE svg PUBLIC "-//W3C//DTD SVG 1.1//EN" "http://www.w3.org/Graphics/SVG/1.1/DTD/svg11.dtd"><svg t="1705645930591" class="icon" viewBox="0 0 1024 1024" version="1.1" xmlns="http://www.w3.org/2000/svg" p-id="15966" data-spm-anchor-id="a313x.search_index.0.i21.5c103a813x2WF2" xmlns:xlink="http://www.w3.org/1999/xlink" width="64" height="64"><path d="M803.776 305.056A96 96 0 0 1 832 373.024V800a96 96 0 0 1-96 96H320a96 96 0 0 1-96-96V256a96 96 0 0 1 96-96h298.592a96 96 0 0 1 67.808 28l117.376 117.056z" fill="#666666" fill-opacity=".08" opacity=".6" p-id="15967"></path><path d="M835.2 375.392a115.2 115.2 0 0 0-33.76-81.472l-104.064-104.064a115.2 115.2 0 0 0-81.472-33.728h-281.024a115.2 115.2 0 0 0-115.2 115.2v181.792h38.4V271.36a76.8 76.8 0 0 1 76.8-76.8h281.024c1.216 0 2.432 0 3.648 0.096v98.368a83.2 83.2 0 0 0 83.2 83.2h94.016v408.48a76.8 76.8 0 0 1-76.8 76.8H334.88a76.8 76.8 0 0 1-76.8-76.8v-117.824h-38.4v117.824a115.2 115.2 0 0 0 115.2 115.2H720a115.2 115.2 0 0 0 115.2-115.2V375.36z m-48.256-37.6h-84.192a44.8 44.8 0 0 1-44.8-44.8V207.04a76.8 76.8 0 0 1 12.256 9.984l104.064 104.064c5.024 4.992 9.28 10.624 12.672 16.704z" fill="#666666" p-id="15968" data-spm-anchor-id="a313x.search_index.0.i22.5c103a813x2WF2" class=""></path><path d="M464.736 705.216L609.92 560l-145.216-145.216-33.92 33.92 87.232 87.296H224v48h294.08l-87.296 87.264 33.92 33.92z" fill="#4a4a4b" p-id="15969" data-spm-anchor-id="a313x.search_index.0.i20.5c103a813x2WF2" class=""></path></svg>