<?xml version="1.0" standalone="no"?><!DOCTYPE svg PUBLIC "-//W3C//DTD SVG 1.1//EN" "http://www.w3.org/Graphics/SVG/1.1/DTD/svg11.dtd"><svg t="1719803082226" class="icon" viewBox="0 0 1024 1024" version="1.1" xmlns="http://www.w3.org/2000/svg" p-id="2575" xmlns:xlink="http://www.w3.org/1999/xlink" width="200" height="200"><path d="M810.666667 554.666667c-92.586667 0-173.653333 49.493333-218.453334 123.306666-25.6 2.986667-52.48 4.693333-80.213333 4.693334-188.586667 0-341.333333-76.373333-341.333333-170.666667V384c0 94.293333 152.746667 170.666667 341.333333 170.666667s341.333333-76.373333 341.333333-170.666667v128c0 15.36-4.266667 30.293333-11.946666 44.8C832 554.666667 820.906667 554.666667 810.666667 554.666667m-298.666667-85.333334c188.586667 0 341.333333-76.373333 341.333333-170.666666s-152.746667-170.666667-341.333333-170.666667-341.333333 76.373333-341.333333 170.666667 152.746667 170.666667 341.333333 170.666666m46.933333 296.96c-15.36 1.706667-31.146667 1.706667-46.933333 1.706667-188.586667 0-341.333333-76.373333-341.333333-170.666667v128c0 94.293333 152.746667 170.666667 341.333333 170.666667 19.626667 0 38.4 0 56.746667-2.56A253.44 253.44 0 0 1 554.666667 810.666667c0-15.36 1.706667-29.866667 4.266666-44.373334M810.666667 640l-128 128h85.333333v170.666667h85.333333v-170.666667h85.333334l-128-128z" p-id="2576"></path></svg>