<?xml version="1.0" standalone="no"?><!DOCTYPE svg PUBLIC "-//W3C//DTD SVG 1.1//EN" "http://www.w3.org/Graphics/SVG/1.1/DTD/svg11.dtd"><svg t="1726146154644" class="icon" viewBox="0 0 1024 1024" version="1.1" xmlns="http://www.w3.org/2000/svg" p-id="4315" xmlns:xlink="http://www.w3.org/1999/xlink" width="200" height="200"><path d="M658.285714 804.571429v146.285714h109.714286a36.571429 36.571429 0 1 1 0 73.142857h-512a36.571429 36.571429 0 1 1 0-73.142857H365.714286v-146.285714H146.285714a146.285714 146.285714 0 0 1-146.285714-146.285715V146.285714a146.285714 146.285714 0 0 1 146.285714-146.285714h731.428572a146.285714 146.285714 0 0 1 146.285714 146.285714v512a146.285714 146.285714 0 0 1-146.285714 146.285715H658.285714z m-73.142857 0H438.857143v146.285714h146.285714v-146.285714zM146.285714 73.142857a73.142857 73.142857 0 0 0-73.142857 73.142857v512a73.142857 73.142857 0 0 0 73.142857 73.142857h731.428572a73.142857 73.142857 0 0 0 73.142857-73.142857V146.285714a73.142857 73.142857 0 0 0-73.142857-73.142857H146.285714z m398.701715 234.496v277.430857a36.571429 36.571429 0 1 1-73.142858 0V316.489143L388.022857 400.384a36.571429 36.571429 0 0 1-51.712-51.785143L472.502857 212.406857a36.425143 36.425143 0 0 1 40.374857-29.403428 36.571429 36.571429 0 0 1 40.301715 29.403428l136.265142 136.192a36.571429 36.571429 0 1 1-51.712 51.785143L544.914286 307.638857z" fill="#333333" p-id="4316"></path></svg>