<?xml version="1.0" standalone="no"?><!DOCTYPE svg PUBLIC "-//W3C//DTD SVG 1.1//EN" "http://www.w3.org/Graphics/SVG/1.1/DTD/svg11.dtd"><svg t="1703081966211" class="icon" viewBox="0 0 1024 1024" version="1.1" xmlns="http://www.w3.org/2000/svg" p-id="35210" xmlns:xlink="http://www.w3.org/1999/xlink" width="64" height="64"><path d="M991.085714 120.685714h-208.457143c-3.657143 0-7.314286 3.657143-7.314285 7.314286v51.2c0 3.657143 3.657143 7.314286 7.314285 7.314286h146.285715c18.285714 0 32.914286 14.628571 32.914285 36.571428v585.142857c0 18.285714-14.628571 32.914286-32.914285 36.571429h-146.285715c-3.657143 0-7.314286 3.657143-7.314285 7.314286v51.2c0 3.657143 3.657143 7.314286 7.314285 7.314285h208.457143c18.285714 0 32.914286-14.628571 32.914286-36.571428V153.6c0-18.285714-14.628571-32.914286-32.914286-32.914286zM256 841.142857H98.742857c-18.285714 0-32.914286-14.628571-32.914286-36.571428V219.428571c0-18.285714 14.628571-32.914286 32.914286-36.571428H256c3.657143 0 7.314286-3.657143 7.314286-7.314286V128c0-3.657143-3.657143-7.314286-7.314286-7.314286H36.571429c-21.942857 0-36.571429 14.628571-36.571429 32.914286v716.8c0 18.285714 14.628571 32.914286 32.914286 36.571429h219.428571c3.657143 0 7.314286-3.657143 7.314286-7.314286v-51.2c3.657143-7.314286 0-7.314286-3.657143-7.314286z m610.742857-336.457143l-157.257143-95.085714c-3.657143-3.657143-7.314286 0-10.971428 3.657143v65.828571H318.171429v-58.514285c0-3.657143-3.657143-7.314286-7.314286-7.314286h-3.657143l-157.257143 95.085714c-3.657143 0-7.314286 7.314286-3.657143 10.971429 0 0 0 3.657143 3.657143 3.657143l157.257143 95.085714c3.657143 3.657143 7.314286 0 10.971429-3.657143V548.571429h380.342857v54.857142c0 3.657143 3.657143 7.314286 7.314285 7.314286h3.657143l157.257143-95.085714c3.657143 0 7.314286-7.314286 0-10.971429 3.657143 0 3.657143 0 0 0z" fill="#4a4a4b" p-id="35211"></path></svg>