<?xml version="1.0" standalone="no"?><!DOCTYPE svg PUBLIC "-//W3C//DTD SVG 1.1//EN" "http://www.w3.org/Graphics/SVG/1.1/DTD/svg11.dtd"><svg t="1702723332059" class="icon" viewBox="0 0 1024 1024" version="1.1" xmlns="http://www.w3.org/2000/svg" p-id="28279" xmlns:xlink="http://www.w3.org/1999/xlink" width="64" height="64"><path d="M286.77 350a318.88 318.88 0 0 1 451 0q4.5 4.5 8.8 9.16a31.94 31.94 0 0 0 42.21 4.08 32 32 0 0 0 4.57-47.74q-5.05-5.46-10.34-10.74a382.57 382.57 0 0 0-541.46 0q-4.94 4.94-9.67 10a32 32 0 0 0 4.56 47.76 32 32 0 0 0 42.19-4.07q3.96-4.24 8.14-8.45zM802.47 644.58a32 32 0 0 0-43.62 5.71q-9.93 12.08-21.13 23.29a318.86 318.86 0 0 1-450.95 0q-10.57-10.58-20-21.93a31.89 31.89 0 0 0-43.24-5.25 32 32 0 0 0-5.91 46.22q11.29 13.59 23.91 26.21a382.57 382.57 0 0 0 541.46 0q13.5-13.49 25.48-28.1a32 32 0 0 0-6-46.15z" fill="#4a4a4b" p-id="28280"></path><path d="M743.27 250.23m32 0l0 0q32 0 32 32l0 60.33q0 32-32 32l0 0q-32 0-32-32l0-60.33q0-32 32-32Z" fill="#4a4a4b" p-id="28281"></path><path d="M206.79 637.69m32 0l0 0q32 0 32 32l0 60.33q0 32-32 32l0 0q-32 0-32-32l0-60.33q0-32 32-32Z" fill="#4a4a4b" p-id="28282"></path></svg>