<?xml version="1.0" standalone="no"?><!DOCTYPE svg PUBLIC "-//W3C//DTD SVG 1.1//EN" "http://www.w3.org/Graphics/SVG/1.1/DTD/svg11.dtd"><svg t="1702721076304" class="icon" viewBox="0 0 1066 1024" version="1.1" xmlns="http://www.w3.org/2000/svg" p-id="9374" xmlns:xlink="http://www.w3.org/1999/xlink" width="66.625" height="64"><path d="M395.178667 952.277333a24.576 24.576 0 0 1-24.661334-24.405333V96.341333a24.405333 24.405333 0 0 1 24.661334-24.405333h276.437333a24.405333 24.405333 0 0 1 24.405333 24.405333v831.530667a24.576 24.576 0 0 1-24.405333 24.405333z m24.405333-49.066666h227.328V121.045333H419.584z m425.514667-280.021334l-93.866667-93.866666a28.288 28.288 0 0 1-5.248-7.893334 24.448 24.448 0 0 1-1.834667-9.472 23.466667 23.466667 0 0 1 1.834667-9.429333 25.045333 25.045333 0 0 1 5.248-7.893333l93.866667-93.866667a24.277333 24.277333 0 0 1 34.688 0 24.533333 24.533333 0 0 1 0 34.645333l-51.754667 51.712h192.682667a24.533333 24.533333 0 1 1 0 49.066667h-192.682667l51.754667 51.968a24.490667 24.490667 0 0 1-34.645334 34.645333z m-658.005334 0a23.936 23.936 0 0 1 0-34.645333l51.669334-51.968H46.08a24.533333 24.533333 0 1 1 0-49.066667h192.682667l-51.669334-51.712a24.490667 24.490667 0 1 1 34.602667-34.645333l93.482667 93.866667a24.106667 24.106667 0 0 1 0 34.645333l-93.482667 93.866667a25.002667 25.002667 0 0 1-17.408 7.082666 24.106667 24.106667 0 0 1-17.194667-7.466666z" fill="#4a4a4b" p-id="9375"></path></svg>