<?xml version="1.0" standalone="no"?><!DOCTYPE svg PUBLIC "-//W3C//DTD SVG 1.1//EN" "http://www.w3.org/Graphics/SVG/1.1/DTD/svg11.dtd"><svg t="1702721069903" class="icon" viewBox="0 0 1024 1024" version="1.1" xmlns="http://www.w3.org/2000/svg" p-id="9222" xmlns:xlink="http://www.w3.org/1999/xlink" width="64" height="64"><path d="M89.545724 379.319946a23.594848 23.594848 0 0 1 23.430994-23.676775h798.333307a23.430994 23.430994 0 0 1 23.430994 23.676775v265.401072a23.430994 23.430994 0 0 1-23.430994 23.430994H112.976718a23.594848 23.594848 0 0 1-23.430994-23.430994z m47.107768 23.430994v218.25234h750.938795V402.75094zM405.49548 811.277702l90.119209-90.119209a27.158653 27.158653 0 0 1 7.578206-5.038483 23.471958 23.471958 0 0 1 9.093848-1.761421 22.529802 22.529802 0 0 1 9.052884 1.761421 24.045444 24.045444 0 0 1 7.578206 5.038483l90.11921 90.119209a23.308105 23.308105 0 0 1 0 33.303144 23.553884 23.553884 0 0 1-33.262181 0l-49.647492-49.688455v184.99016a23.553884 23.553884 0 1 1-47.107768 0v-184.99016l-49.893272 49.688455a23.512921 23.512921 0 0 1-33.262181-33.262181z m0-631.735659a22.980398 22.980398 0 0 1 33.262181 0l49.893271 49.606529V44.158413a23.553884 23.553884 0 1 1 47.107769 0v184.990159l49.647491-49.606529a23.512921 23.512921 0 1 1 33.262181 33.221218l-90.119209 89.75054a23.144252 23.144252 0 0 1-33.262181 0l-90.11921-89.75054a24.00448 24.00448 0 0 1-6.799904-16.713017 23.144252 23.144252 0 0 1 7.168574-16.508201z" fill="#4a4a4b" p-id="9223"></path></svg>