<?xml version="1.0" standalone="no"?><!DOCTYPE svg PUBLIC "-//W3C//DTD SVG 1.1//EN" "http://www.w3.org/Graphics/SVG/1.1/DTD/svg11.dtd"><svg t="1702722995391" class="icon" viewBox="0 0 1024 1024" version="1.1" xmlns="http://www.w3.org/2000/svg" p-id="25539" xmlns:xlink="http://www.w3.org/1999/xlink" width="64" height="64"><path d="M513.088 494.016l0.864 0.032 0.544 0.032c3.52 0.256 6.88 0.96 10.016 2.144l0.512 0.224 0.48 0.16 0.64 0.288 0.32 0.128c3.36 1.472 6.56 3.488 9.408 6.016l0.768 0.736 0.64 0.576 128.16 128.192a36 36 0 0 1-50.464 51.328l-0.416-0.416-66.56-66.56v293.12a36 36 0 0 1-72 0.576v-293.696l-66.56 66.56a36 36 0 0 1-51.328-50.496l129.248-129.216a35.84 35.84 0 0 1 10.048-6.656l0.704-0.32 0.768-0.32 0.448-0.16c3.072-1.152 6.336-1.92 9.728-2.176l0.64-0.032 0.864-0.064h2.56z m-1.088-416a256 256 0 0 1 254.88 280.096 200 200 0 0 1 5.12 399.52V685.44a128 128 0 0 0-5.504-255.264l-2.048-0.096-76.352-2.56 7.104-76.096a184 184 0 1 0-366.528-1.76l0.128 1.696 7.168 76.16-76.416 2.56a128 128 0 0 0 0.48 255.872l-0.032 71.936h-3.328a200 200 0 0 1 0.448-399.776A256 256 0 0 1 512 77.984z" fill="#4a4a4b" p-id="25540"></path></svg>